<?xml version="1.0" standalone="no"?>
<!DOCTYPE svg PUBLIC "-//W3C//DTD SVG 20010904//EN"
 "http://www.w3.org/TR/2001/REC-SVG-20010904/DTD/svg10.dtd">
<svg version="1.0" xmlns="http://www.w3.org/2000/svg"
 width="409.000000pt" height="409.000000pt" viewBox="0 0 409.000000 409.000000"
 preserveAspectRatio="xMidYMid meet">
<metadata>
Created by potrace 1.11, written by Peter Selinger 2001-2013
</metadata>
<g transform="translate(0.000000,409.000000) scale(0.100000,-0.100000)"
fill="#000000" stroke="none">
<path d="M1058 3886 c-1 -2 -84 -6 -183 -10 -99 -4 -193 -9 -210 -12 -16 -3
-172 -7 -345 -9 l-315 -5 -2 -51 c-2 -40 1 -55 15 -65 22 -16 148 -59 231 -78
34 -8 66 -18 69 -21 11 -11 8 -2316 -3 -2325 -5 -4 -23 -10 -40 -13 -58 -9
-130 -29 -201 -55 l-71 -26 -2 -58 -1 -58 518 0 518 0 -1 56 c0 40 -5 58 -16
64 -18 10 -210 67 -252 74 -15 3 -36 8 -47 11 -19 6 -20 17 -19 511 l0 504
185 0 184 0 31 -66 c141 -310 251 -511 400 -734 143 -213 218 -304 301 -364
l76 -56 90 0 89 0 0 -340 c0 -236 -3 -343 -11 -348 -6 -3 -60 -19 -121 -34
-118 -30 -181 -54 -188 -72 -2 -6 -3 -31 -2 -56 l1 -45 517 -3 517 -2 0 58 0
57 -47 17 c-44 15 -202 58 -263 72 l-25 5 0 503 0 503 187 3 c186 2 187 2 194
-20 13 -45 192 -405 253 -513 81 -142 229 -365 320 -482 48 -62 96 -111 146
-148 l75 -55 234 0 c255 0 244 -3 241 60 -3 47 -4 50 -14 50 -4 0 -51 24 -104
53 -94 51 -96 54 -194 182 -203 268 -633 890 -633 915 0 3 30 19 68 34 174 70
313 188 399 338 95 164 115 452 46 658 -95 286 -339 450 -723 486 -55 5 -326
4 -395 -1 -27 -2 -88 -7 -135 -10 -47 -4 -168 -9 -269 -11 l-183 -4 6 34 c9
45 9 181 1 253 -27 234 -160 430 -362 532 -123 63 -253 96 -413 106 -52 4
-100 8 -107 10 -6 2 -13 2 -15 1z m57 -221 c129 -23 222 -65 302 -139 78 -71
120 -150 144 -271 10 -50 13 -217 4 -265 -2 -14 -7 -41 -11 -60 -23 -132 -125
-282 -239 -355 -114 -72 -184 -87 -423 -90 l-192 -2 0 588 1 588 32 5 c62 10
83 12 191 13 61 1 146 -4 191 -12z m942 -1581 c0 -360 -1 -654 -3 -654 -3 0
-145 191 -246 330 -41 58 -150 217 -242 354 l-166 250 57 23 c193 77 323 184
413 339 l30 51 78 -20 79 -19 0 -654z m778 685 c135 -21 270 -87 345 -170 52
-56 99 -157 116 -246 10 -51 11 -203 1 -266 -36 -247 -190 -425 -417 -483 -49
-13 -113 -17 -255 -18 l-190 -1 0 587 -1 587 46 6 c25 4 52 8 60 9 35 7 240 3
295 -5z"/>
</g>
</svg>
