<?xml version="1.0" encoding="UTF-8"?>
<svg width="35px" height="30px" viewBox="0 0 35 30" version="1.1" xmlns="http://www.w3.org/2000/svg" xmlns:xlink="http://www.w3.org/1999/xlink">
    <!-- Generator: Sketch 43.1 (39012) - http://www.bohemiancoding.com/sketch -->
    <title>Group 18</title>
    <desc>Created with Sketch.</desc>
    <defs>
        <path d="M17,29.628 L16.413,29.15 C3.553,18.676 0.07,14.989 0.07,9 C0.07,4.076 4.076,0.07 9,0.07 C13.115,0.07 15.441,2.407 17,4.165 C18.559,2.407 20.885,0.07 25,0.07 C29.924,0.07 33.93,4.076 33.93,9 C33.93,14.989 30.447,18.676 17.587,29.15 L17,29.628 Z M9,1.93 C5.102,1.93 1.93,5.102 1.93,9 C1.93,14.131 5.159,17.561 17,27.228 C28.841,17.561 32.07,14.131 32.07,9 C32.07,5.102 28.898,1.93 25,1.93 C21.43,1.93 19.567,4.055 18.071,5.763 L17,6.966 L15.929,5.763 C14.433,4.055 12.57,1.93 9,1.93 Z" id="path-1"></path>
    </defs>
    <g id="Page-1" stroke="none" stroke-width="1" fill="none" fill-rule="evenodd">
        <g id="Artboard" transform="translate(-166.000000, -68.000000)">
            <g id="Group-18" transform="translate(166.655845, 68.165645)">
                <mask id="mask-2" fill="white">
                    <use xlink:href="#path-1"></use>
                </mask>
                <g id="Clip-17"></g>
                <polygon id="Fill-16" fill="#FFAE00" mask="url(#mask-2)" points="-4.93 34.628 38.93 34.628 38.93 -4.93 -4.93 -4.93"></polygon>
            </g>
            <path d="M183.679241,74.232394 C183.679241,74.232394 180.396027,70.2725023 178.719537,69.9260324 C177.043047,69.5795625 173.107903,69.5100328 173.107903,69.5100328 L170.470253,71.0132879 L168.986561,73.2476653 L167.723713,75.7554474 L167.832368,78.9785603 L168.191565,81.0698714 L169.299562,83.2248199 L183.261356,96.6176493 L184.707102,95.9268308 L189.553438,91.8429641 L194.813888,86.7944027 L197.369988,83.9165813 L198.57839,81.4278903 L199.259309,79.3837179 L199.606251,76.7425331 L199.21382,74.8178574 L198.393135,72.3774837 L196.870317,71.0066885 L194.800218,69.9017559 L192.507389,69.2757532 L191.009555,69.2333283 L188.84565,69.6010106 L187.078182,70.148056 L184.424741,72.7437519 L183.679241,74.232394 Z" id="Path-2" fill="#FFAE00"></path>
        </g>
    </g>
</svg>